<mxfile host="app.diagrams.net" modified="2024-04-23T05:10:14.199Z" agent="Mozilla/5.0 (Windows NT 10.0; Win64; x64) AppleWebKit/537.36 (KHTML, like Gecko) Chrome/124.0.0.0 Safari/537.36" version="22.1.16" etag="jR0eNMq1ywLFD1nCy8DT" type="github">
  <diagram name="Page-1" id="h5Hi14FnmkXuTMaYJHvH">
    <mxGraphModel>
      <root>
        <mxCell id="0" />
        <mxCell id="1" parent="0" />
      </root>
    </mxGraphModel>
  </diagram>
</mxfile>
